<svg xmlns="http://www.w3.org/2000/svg" viewBox="0 0 1280 800" font-family="Segoe UI, Helvetica, Arial, sans-serif">
  <defs>
    <linearGradient id="bg" x1="0" y1="0" x2="0" y2="1">
      <stop offset="0%" stop-color="#0c0c14"/><stop offset="100%" stop-color="#08080c"/>
    </linearGradient>
    <radialGradient id="glow" cx="50%" cy="0%" r="70%">
      <stop offset="0%" stop-color="#4338ca" stop-opacity="0.20"/><stop offset="60%" stop-color="#4338ca" stop-opacity="0"/>
    </radialGradient>
    <linearGradient id="card" x1="0" y1="0" x2="0" y2="1">
      <stop offset="0%" stop-color="#1a1a24"/><stop offset="100%" stop-color="#101017"/>
    </linearGradient>
    <linearGradient id="n8ncard" x1="0" y1="0" x2="0" y2="1">
      <stop offset="0%" stop-color="#241a10"/><stop offset="100%" stop-color="#15110b"/>
    </linearGradient>
    <linearGradient id="accent" x1="0" y1="0" x2="1" y2="0">
      <stop offset="0%" stop-color="#818cf8"/><stop offset="100%" stop-color="#a78bfa"/>
    </linearGradient>
    <style>
      .f  { stroke:#6b7280; stroke-width:2.2; fill:none; stroke-dasharray:9 7; animation:d .9s linear infinite; }
      .fb { stroke:#818cf8; stroke-width:2.4; fill:none; stroke-dasharray:9 7; animation:d .9s linear infinite; }
      .fg { stroke:#34d399; stroke-width:2.2; fill:none; stroke-dasharray:9 7; animation:d 1.1s linear infinite; }
      @keyframes d { to { stroke-dashoffset:-16 } }
    </style>
    <marker id="m" markerWidth="9" markerHeight="9" refX="7" refY="3" orient="auto" markerUnits="strokeWidth"><path d="M0,0 L7,3 L0,6 Z" fill="#8b93a7"/></marker>
    <marker id="mb" markerWidth="9" markerHeight="9" refX="7" refY="3" orient="auto" markerUnits="strokeWidth"><path d="M0,0 L7,3 L0,6 Z" fill="#818cf8"/></marker>
    <marker id="mg" markerWidth="9" markerHeight="9" refX="7" refY="3" orient="auto" markerUnits="strokeWidth"><path d="M0,0 L7,3 L0,6 Z" fill="#34d399"/></marker>
  </defs>

  <rect width="1280" height="800" fill="url(#bg)"/>
  <rect width="1280" height="420" fill="url(#glow)"/>

  <!-- title -->
  <rect x="44" y="34" width="34" height="6" rx="3" fill="url(#accent)"/>
  <text x="44" y="74" font-size="31" font-weight="800" fill="#f5f5f7">System Architecture</text>
  <text x="44" y="100" font-size="14.5" fill="#9aa0aa">Persona AI chatbot · Next.js · n8n agent · two-tier RAG · Redis</text>
  <!-- legend -->
  <line x1="980" y1="64" x2="1022" y2="64" class="f"/><text x="1030" y="68" font-size="12.5" fill="#9aa0aa">runtime</text>
  <line x1="980" y1="86" x2="1022" y2="86" class="fg"/><text x="1030" y="90" font-size="12.5" fill="#9aa0aa">ingestion</text>

  <!-- section pill RUNTIME -->
  <rect x="44" y="128" width="96" height="26" rx="13" fill="#1b1b26" stroke="#2e2e3a"/>
  <circle cx="60" cy="141" r="4" fill="#818cf8"/><text x="72" y="145" font-size="11" font-weight="700" letter-spacing="1.5" fill="#a5abb8">RUNTIME</text>

  <!-- USER -->
  <rect x="44" y="172" width="174" height="188" rx="16" fill="url(#card)" stroke="#2a2a36"/>
  <rect x="60" y="188" width="30" height="30" rx="8" fill="#1f6feb"/><text x="75" y="209" text-anchor="middle" font-size="15" font-weight="700" fill="#fff">U</text>
  <text x="100" y="208" font-size="13.5" font-weight="700" fill="#e9eaee">User</text>
  <rect x="60" y="232" width="142" height="52" rx="10" fill="#15151d" stroke="#26405f"/>
  <text x="74" y="254" font-size="12.5" font-weight="600" fill="#93c5fd">Chat UI</text><text x="74" y="271" font-size="10" fill="#8a8f99">ask · watch clip</text>
  <rect x="60" y="296" width="142" height="52" rx="10" fill="#15151d" stroke="#26405f"/>
  <text x="74" y="318" font-size="12.5" font-weight="600" fill="#93c5fd">Admin UI</text><text x="74" y="335" font-size="10" fill="#8a8f99">post alerts</text>

  <!-- NEXT.JS -->
  <rect x="258" y="172" width="174" height="188" rx="16" fill="url(#card)" stroke="#2a2a36"/>
  <rect x="274" y="188" width="30" height="30" rx="8" fill="#e5e7eb"/><text x="289" y="209" text-anchor="middle" font-size="15" font-weight="800" fill="#111">N</text>
  <text x="314" y="208" font-size="13.5" font-weight="700" fill="#e9eaee">Next.js</text>
  <rect x="274" y="232" width="142" height="52" rx="10" fill="#15151d" stroke="#34343f"/>
  <text x="288" y="254" font-size="12" font-weight="600" fill="#e9eaee">/api/chat</text><text x="288" y="271" font-size="10" fill="#8a8f99">proxy · rate-limit</text>
  <rect x="274" y="296" width="142" height="52" rx="10" fill="#15151d" stroke="#34343f"/>
  <text x="288" y="318" font-size="12" font-weight="600" fill="#e9eaee">/api/alerts</text><text x="288" y="335" font-size="10" fill="#8a8f99">CRUD · auth</text>

  <!-- N8N AGENT -->
  <rect x="472" y="162" width="270" height="208" rx="18" fill="url(#n8ncard)" stroke="#f59e0b" stroke-width="1.6"/>
  <rect x="490" y="180" width="30" height="30" rx="8" fill="#f59e0b"/><text x="505" y="201" text-anchor="middle" font-size="15" font-weight="800" fill="#241400">n8</text>
  <text x="530" y="201" font-size="15.5" font-weight="800" fill="#fbbf24">n8n AI Agent</text>
  <g font-size="12.5" fill="#d6d9e0">
    <circle cx="500" cy="234" r="9" fill="#2a2117" stroke="#5a4520"/><text x="500" y="238" text-anchor="middle" font-size="10" fill="#fbbf24">1</text><text x="518" y="238">rewrite query</text>
    <circle cx="500" cy="262" r="9" fill="#2a2117" stroke="#5a4520"/><text x="500" y="266" text-anchor="middle" font-size="10" fill="#fbbf24">2</text><text x="518" y="266">retrieve context + alerts</text>
    <circle cx="500" cy="290" r="9" fill="#2a2117" stroke="#5a4520"/><text x="500" y="294" text-anchor="middle" font-size="10" fill="#fbbf24">3</text><text x="518" y="294">inject persona (v11)</text>
    <circle cx="500" cy="318" r="9" fill="#2a2117" stroke="#5a4520"/><text x="500" y="322" text-anchor="middle" font-size="10" fill="#fbbf24">4</text><text x="518" y="322">call model</text>
    <circle cx="500" cy="346" r="9" fill="#2a2117" stroke="#5a4520"/><text x="500" y="350" text-anchor="middle" font-size="10" fill="#fbbf24">5</text><text x="518" y="350">enforce alert override</text>
  </g>

  <!-- REDIS under -->
  <rect x="472" y="382" width="270" height="46" rx="12" fill="url(#card)" stroke="#7f3030"/>
  <rect x="486" y="394" width="22" height="22" rx="6" fill="#ef4444"/><text x="497" y="410" text-anchor="middle" font-size="12" font-weight="700" fill="#fff">R</text>
  <text x="518" y="404" font-size="12.5" font-weight="600" fill="#f87171">Upstash Redis</text><text x="518" y="420" font-size="10" fill="#8a8f99">sessions + structured alerts</text>

  <!-- STORES -->
  <rect x="792" y="172" width="226" height="56" rx="12" fill="url(#card)" stroke="#4c3f7a"/>
  <rect x="808" y="186" width="26" height="26" rx="7" fill="#a78bfa"/><text x="821" y="205" text-anchor="middle" font-size="12" font-weight="700" fill="#1a0f33">AI</text>
  <text x="844" y="196" font-size="13" font-weight="700" fill="#c4b5fd">LLM · OpenRouter</text><text x="844" y="214" font-size="10.5" fill="#8a8f99">gpt-4o-mini</text>

  <rect x="792" y="244" width="226" height="56" rx="12" fill="url(#card)" stroke="#1f5c45"/>
  <rect x="808" y="258" width="26" height="26" rx="7" fill="#34d399"/><text x="821" y="277" text-anchor="middle" font-size="12" font-weight="700" fill="#04231a">V</text>
  <text x="844" y="268" font-size="13" font-weight="700" fill="#34d399">Upstash Vector</text><text x="844" y="286" font-size="10.5" fill="#8a8f99">knowledge base · 50h media</text>

  <rect x="792" y="316" width="226" height="56" rx="12" fill="url(#card)" stroke="#28507e"/>
  <rect x="808" y="330" width="26" height="26" rx="7" fill="#60a5fa"/><text x="821" y="349" text-anchor="middle" font-size="12" font-weight="700" fill="#04223f">P</text>
  <text x="844" y="340" font-size="13" font-weight="700" fill="#60a5fa">Pinecone</text><text x="844" y="358" font-size="10.5" fill="#8a8f99">live alerts · Cohere embeds</text>

  <!-- connectors -->
  <path class="f" d="M218 246 L256 246" marker-end="url(#m)"/>
  <path class="f" d="M218 322 L256 322" marker-end="url(#m)"/>
  <path class="f" d="M432 246 L470 258" marker-end="url(#m)"/>
  <path class="f" d="M432 322 L472 392" marker-end="url(#m)"/>
  <path class="f" d="M742 214 L788 200" marker-end="url(#m)"/>
  <path class="f" d="M742 266 L788 272" marker-end="url(#m)"/>
  <path class="f" d="M742 318 L788 344" marker-end="url(#m)"/>
  <path class="f" d="M607 370 L607 382" marker-end="url(#m)"/>
  <path class="fb" d="M540 162 C 450 116, 250 116, 134 168" marker-end="url(#mb)"/>
  <text x="330" y="128" text-anchor="middle" font-size="11" fill="#818cf8">response · in-character</text>

  <!-- INGESTION -->
  <rect x="44" y="470" width="112" height="26" rx="13" fill="#13211a" stroke="#1f4636"/>
  <circle cx="60" cy="483" r="4" fill="#34d399"/><text x="72" y="487" font-size="11" font-weight="700" letter-spacing="1.5" fill="#7fd9b6">INGESTION</text>

  <rect x="44" y="520" width="160" height="60" rx="12" fill="url(#card)" stroke="#2a2a36"/>
  <rect x="58" y="535" width="26" height="26" rx="7" fill="#ff4d4d"/><text x="71" y="554" text-anchor="middle" font-size="12" font-weight="700" fill="#fff">▶</text>
  <text x="94" y="546" font-size="12.5" font-weight="600" fill="#e9eaee">YouTube</text><text x="94" y="563" font-size="10" fill="#8a8f99">channel videos</text>

  <rect x="244" y="520" width="262" height="60" rx="12" fill="url(#card)" stroke="#2a2a36"/>
  <rect x="258" y="535" width="26" height="26" rx="7" fill="#3776ab"/><text x="271" y="554" text-anchor="middle" font-size="12" font-weight="700" fill="#fff">Py</text>
  <text x="294" y="546" font-size="12.5" font-weight="600" fill="#e9eaee">Python ETL</text><text x="294" y="563" font-size="10" fill="#8a8f99">scrape · chunk · dual-translate · embed</text>
  <path class="fg" d="M204 550 L240 550" marker-end="url(#mg)"/>
  <path class="fg" d="M375 520 C 520 430, 760 330, 900 296" marker-end="url(#mg)"/>
  <text x="630" y="430" text-anchor="middle" font-size="11" fill="#34d399">embed → knowledge base</text>

  <rect x="44" y="640" width="160" height="60" rx="12" fill="url(#card)" stroke="#2a2a36"/>
  <rect x="58" y="655" width="26" height="26" rx="7" fill="#1f6feb"/><text x="71" y="674" text-anchor="middle" font-size="12" font-weight="700" fill="#fff">D</text>
  <text x="94" y="666" font-size="12.5" font-weight="600" fill="#e9eaee">Google Drive</text><text x="94" y="683" font-size="10" fill="#8a8f99">alert docs (.txt)</text>

  <rect x="244" y="640" width="262" height="60" rx="12" fill="url(#card)" stroke="#2a2a36"/>
  <rect x="258" y="655" width="26" height="26" rx="7" fill="#f59e0b"/><text x="271" y="674" text-anchor="middle" font-size="11" font-weight="700" fill="#241400">n8</text>
  <text x="294" y="666" font-size="12.5" font-weight="600" fill="#e9eaee">n8n ingest flow</text><text x="294" y="683" font-size="10" fill="#8a8f99">trigger · filter · switch · edit fields</text>

  <rect x="546" y="640" width="170" height="60" rx="12" fill="url(#card)" stroke="#2a2a36"/>
  <rect x="560" y="655" width="26" height="26" rx="7" fill="#93c5fd"/><text x="573" y="674" text-anchor="middle" font-size="12" font-weight="700" fill="#0a1f3a">C</text>
  <text x="596" y="666" font-size="12.5" font-weight="600" fill="#e9eaee">Cohere</text><text x="596" y="683" font-size="10" fill="#8a8f99">embeddings</text>
  <path class="fg" d="M204 670 L240 670" marker-end="url(#mg)"/>
  <path class="fg" d="M506 670 L542 670" marker-end="url(#mg)"/>
  <path class="fg" d="M631 640 C 730 520, 830 400, 900 368" marker-end="url(#mg)"/>
  <text x="820" y="540" text-anchor="middle" font-size="11" fill="#34d399">write live alerts</text>

  <text x="44" y="762" font-size="12" fill="#5b6472">Two-tier retrieval · alerts override the model · Redis keeps sessions fast.</text>
</svg>
