<svg version="1.1" id="Layer_1" xmlns="http://www.w3.org/2000/svg" xmlns:xlink="http://www.w3.org/1999/xlink" x="0px" y="0px"
	 width="100%" viewBox="0 0 248 213" enable-background="new 0 0 248 213" xml:space="preserve">
<path fill="#000000" opacity="1.000000" stroke="none" 
	d="
M152.000000,214.000000 
	C101.333336,214.000000 51.166672,214.000000 1.000007,214.000000 
	C1.000005,143.000000 1.000005,72.000015 1.000002,1.000016 
	C83.666656,1.000011 166.333313,1.000011 248.999969,1.000005 
	C248.999985,71.999985 248.999985,142.999969 249.000000,213.999969 
	C216.833328,214.000000 184.666672,214.000000 152.000000,214.000000 
M189.041168,159.042892 
	C189.041168,159.042892 189.043716,159.147064 189.565582,158.955872 
	C189.759308,158.650284 189.953033,158.344681 190.053314,158.040405 
	C190.053314,158.040405 190.067856,158.132721 190.764420,158.011276 
	C191.214401,157.353699 191.664398,156.696136 192.768509,155.784332 
	C200.773651,150.757523 208.842255,145.827728 216.751282,140.653961 
	C219.722412,138.710342 220.795364,136.258636 219.247772,132.240173 
	C217.129135,126.738976 216.240509,120.764069 214.965775,114.172180 
	C214.649078,112.607300 214.382278,111.030357 214.007660,109.479469 
	C211.388535,98.636520 208.747116,87.798958 206.008682,76.116158 
	C204.347778,69.357056 202.686874,62.597958 201.014832,55.409969 
	C201.014832,55.409969 200.849442,55.014088 200.967621,54.502285 
	C200.928864,54.331539 200.890106,54.160793 201.020035,53.331284 
	C200.633087,52.558628 200.246140,51.785973 199.987152,50.291088 
	C199.666977,49.472370 199.346786,48.653652 199.009415,47.401108 
	C199.009415,47.401108 198.843063,47.000080 198.979843,46.254726 
	C198.936096,45.503277 198.892349,44.751823 198.997498,43.222488 
	C198.361816,41.103836 197.726135,38.985184 197.075775,36.948376 
	C197.075775,36.948376 197.156525,36.928528 197.020157,36.197372 
	C196.727325,35.112732 196.434494,34.028091 196.019180,32.293667 
	C195.966507,31.857012 195.913849,31.420355 195.980438,30.495110 
	C195.713043,30.322939 195.445633,30.150768 195.010742,29.209435 
	C193.790894,28.886158 192.094406,27.883076 191.428543,28.349928 
	C187.106552,31.380236 183.008774,34.730335 178.413773,37.993153 
	C178.413773,37.993153 178.022705,38.157448 177.326736,38.187466 
	C173.173386,41.433105 169.020020,44.678745 164.946899,47.940033 
	C164.946899,47.940033 164.929321,47.860180 164.226685,47.981720 
	C162.108765,49.630817 159.990829,51.279915 157.965576,52.945183 
	C157.965576,52.945183 157.969055,52.851166 157.446198,53.051651 
	C157.252197,53.359955 157.058197,53.668255 156.958328,53.971485 
	C156.958328,53.971485 156.943329,53.878399 156.164215,53.981762 
	C155.119217,53.944725 154.074219,53.907692 152.774277,53.234013 
	C151.822662,51.952488 150.776642,50.729836 149.934952,49.379780 
	C144.890442,41.288525 139.892929,33.167965 134.966858,24.466829 
	C134.651871,24.238401 134.336868,24.009972 133.874100,23.272102 
	C133.544098,22.869709 133.214081,22.467316 132.978867,21.487003 
	C132.667953,21.271376 132.357025,21.055748 132.029556,20.969896 
	C132.029556,20.969896 132.160110,20.978182 131.958374,20.445642 
	C131.645782,20.246244 131.333191,20.046846 131.029938,19.961145 
	C131.029938,19.961145 131.142426,19.942137 131.007294,19.249281 
	C129.872208,17.815710 128.737106,16.382137 127.099426,14.313830 
	C124.413689,18.621220 122.133232,22.278622 119.937019,25.945311 
	C119.937019,25.945311 119.929810,25.860865 119.316048,26.137005 
	C118.813660,27.082325 118.311279,28.027643 117.374962,29.047033 
	C117.088493,29.210617 116.954971,29.457066 116.432281,30.026875 
	C116.327827,30.369509 116.223366,30.712143 115.969490,31.417892 
	C115.969490,31.417892 115.974785,31.810511 115.361259,32.107281 
	C114.870018,33.058987 114.378777,34.010696 113.307220,35.169090 
	C113.158409,35.757454 113.009598,36.345814 112.939354,36.949593 
	C112.939354,36.949593 112.929016,36.870193 112.311684,37.124790 
	C111.828339,38.062672 111.344994,39.000553 110.939842,39.951107 
	C110.939842,39.951107 110.931740,39.872311 110.318138,40.125492 
	C109.833038,41.063160 109.347939,42.000824 108.941383,42.949284 
	C108.941383,42.949284 108.931129,42.870663 108.320984,43.132305 
	C107.834595,44.067509 107.348206,45.002708 106.940132,45.950577 
	C106.940132,45.950577 106.931122,45.871750 106.318901,46.126633 
	C105.833229,47.063828 105.347565,48.001022 104.963142,48.953896 
	C104.963142,48.953896 104.967155,48.851517 104.436409,49.041500 
	C104.243156,49.351990 104.049904,49.662479 103.212486,50.279541 
	C101.508652,54.599342 99.223099,56.830051 94.776192,53.013451 
	C92.981567,51.473202 90.835480,50.342461 88.864456,48.351719 
	C87.919952,47.847485 86.975456,47.343250 85.942589,46.390163 
	C85.770386,46.097061 85.514397,45.955765 84.965179,45.435040 
	C84.636353,45.333508 84.307526,45.231972 83.580444,44.983288 
	C83.580444,44.983288 83.156067,44.970409 82.949173,44.449326 
	C82.641678,44.250282 82.334183,44.051243 82.023460,43.969345 
	C82.023460,43.969345 82.140564,43.964973 81.960571,43.433548 
	C81.652565,43.236607 81.344551,43.039665 81.035851,42.956055 
	C81.035851,42.956055 81.148689,42.945538 80.952560,42.416424 
	C80.626251,42.318863 80.299942,42.221302 79.590927,41.974346 
	C79.590927,41.974346 79.180199,41.964859 78.961472,41.444019 
	C78.650963,41.245430 78.340462,41.046844 78.033646,40.944794 
	C78.033646,40.944794 78.128860,40.928444 77.869469,40.334133 
	C77.252251,40.171112 76.635033,40.008087 76.021118,39.947449 
	C76.021118,39.947449 76.122604,39.933517 75.866409,39.321671 
	C74.930565,38.837963 73.994713,38.354259 73.044502,37.965252 
	C73.044502,37.965252 73.140228,37.968483 72.952431,37.441692 
	C72.646240,37.243404 72.340050,37.045120 72.035721,36.941498 
	C72.035721,36.941498 72.129166,36.926231 71.863731,36.301792 
	C70.901146,35.917397 69.938568,35.533001 68.328285,34.843456 
	C64.775169,33.100838 62.383953,28.502272 57.355175,30.344299 
	C55.955307,36.586739 54.562984,42.795532 53.027981,49.842133 
	C52.720917,51.416840 52.424229,52.993652 52.105049,54.565899 
	C50.449043,62.723171 48.787300,70.879280 46.979046,79.648598 
	C46.947140,80.067345 46.915237,80.486084 46.180714,81.295471 
	C45.511215,84.861572 44.841713,88.427673 43.820591,92.703529 
	C42.931309,95.798096 42.042023,98.892662 41.006924,102.829041 
	C38.789585,112.943512 36.489620,123.041054 34.411427,133.184036 
	C33.873787,135.808075 32.316582,139.213852 36.963551,140.032684 
	C36.963551,140.032684 36.867294,140.026825 37.050537,140.555161 
	C37.357292,140.751617 37.664047,140.948090 37.972401,141.030121 
	C37.972401,141.030121 37.858154,141.036636 38.054504,141.529709 
	C38.356197,141.631821 38.657887,141.733948 39.614071,142.132416 
	C49.154167,148.430954 58.741730,154.659012 68.223534,161.044098 
	C83.482742,171.319748 98.672134,181.699066 114.169495,192.672882 
	C115.759987,193.488663 117.350471,194.304443 118.966301,195.043228 
	C118.966301,195.043228 118.887619,195.062607 119.140030,195.682541 
	C120.398911,196.485443 121.657799,197.288330 123.056465,198.580231 
	C123.339348,198.750153 123.622231,198.920090 124.189606,199.761871 
	C126.490234,199.535233 128.790863,199.308594 131.692780,198.854172 
	C132.503845,198.262833 133.314926,197.671494 134.045471,197.063568 
	C134.045471,197.063568 134.044327,197.145782 134.565567,196.953598 
	C134.759964,196.648331 134.954361,196.343048 135.034119,196.032715 
	C135.034119,196.032715 135.038406,196.147400 135.564377,195.952759 
	C135.764877,195.646912 135.965378,195.341064 136.592712,195.019958 
	C136.592712,195.019958 136.991547,194.867096 137.539780,194.948532 
	C137.741196,194.650955 137.942612,194.353378 138.041489,194.044510 
	C138.041489,194.044510 138.042221,194.147690 138.564209,193.951401 
	C138.755554,193.644150 138.946915,193.336899 139.777054,192.770172 
	C147.529831,187.561722 155.282608,182.353271 163.564224,176.953583 
	C163.769241,176.648026 163.974258,176.342484 164.598969,176.026459 
	C164.598969,176.026459 164.988190,175.869141 165.536194,175.943573 
	C165.739685,175.647629 165.943192,175.351700 166.043274,175.046310 
	C166.043274,175.046310 166.046371,175.150101 166.570450,174.961166 
	C166.764313,174.654678 166.958176,174.348190 167.036255,174.034851 
	C167.036255,174.034851 167.039368,174.150787 167.564941,173.952682 
	C167.767181,173.647003 167.969437,173.341324 168.598694,173.021500 
	C168.598694,173.021500 168.995117,172.862213 169.539673,172.935455 
	C169.740799,172.640533 169.941940,172.345596 170.040039,172.041672 
	C170.040039,172.041672 170.042511,172.145050 170.564575,171.954117 
	C170.757065,171.647934 170.949554,171.341751 171.049408,171.037674 
	C171.049408,171.037674 171.063766,171.129211 171.715042,171.009964 
	C172.518799,170.363998 173.322556,169.718033 174.045731,169.053436 
	C174.045731,169.053436 174.068848,169.132828 174.733475,169.012604 
	C175.862289,168.030350 176.991104,167.048080 178.041016,166.048920 
	C178.041016,166.048920 178.061890,166.126877 178.715759,166.010635 
	C179.518097,165.363190 180.320419,164.715744 181.043442,164.051636 
	C181.043442,164.051636 181.063889,164.130051 181.724457,164.012802 
	C182.539474,163.355331 183.354492,162.697861 184.591629,162.025208 
	C184.591629,162.025208 184.986038,161.874054 185.538483,161.955200 
	C185.740372,161.655411 185.942261,161.355606 186.038498,161.044586 
	C186.038498,161.044586 186.038956,161.150833 186.560669,160.948334 
	C186.762527,160.643936 186.964386,160.339523 187.595551,160.021652 
	C187.595551,160.021652 187.994736,159.863098 188.539658,159.936996 
	C188.741425,159.642044 188.943192,159.347107 189.041168,159.042892 
z"/>
<path fill="#FAC9BC" opacity="1.000000" stroke="none" 
	d="
M116.974396,29.786379 
	C116.954971,29.457066 117.088493,29.210617 117.957855,28.967588 
	C119.003769,27.879049 119.466789,26.869957 119.929810,25.860863 
	C119.929810,25.860865 119.937019,25.945311 120.252213,25.933756 
	C121.867691,24.560825 123.620056,23.410835 124.375687,21.794790 
	C126.032471,18.251522 128.238617,18.183567 131.142426,19.942137 
	C131.142426,19.942137 131.029938,19.961145 131.147964,20.153873 
	C131.564026,20.557127 131.862076,20.767654 132.160110,20.978180 
	C132.160110,20.978182 132.029556,20.969896 132.106018,21.155310 
	C132.416336,21.582123 132.650208,21.823523 132.884079,22.064922 
	C133.214081,22.467316 133.544098,22.869709 134.026581,23.781960 
	C134.412582,24.546953 134.646118,24.802094 134.879669,25.057230 
	C139.892929,33.167965 144.890442,41.288525 149.934952,49.379780 
	C150.776642,50.729836 151.822662,51.952488 152.999329,53.837990 
	C153.480225,54.987854 153.736038,55.533745 153.781586,56.329681 
	C146.092224,61.811077 138.583328,67.000534 131.149368,72.295242 
	C128.335007,74.299728 125.775993,74.334579 122.918633,72.347130 
	C116.796097,68.088554 110.404327,64.200447 104.441826,59.734699 
	C100.886864,57.072128 98.879601,57.957962 96.830444,61.291172 
	C93.800949,66.219032 90.739761,71.135002 87.485870,75.915695 
	C81.048065,85.374268 74.619583,94.846611 67.875389,104.085609 
	C65.128334,107.848846 65.588730,110.628288 68.313820,114.073608 
	C71.803246,118.485275 74.777206,123.304893 77.969383,127.951393 
	C89.584427,144.858109 101.256622,161.726028 112.777130,178.696930 
	C116.376129,183.998611 119.564034,189.579330 122.534790,195.033188 
	C121.048851,195.043564 119.968239,195.053085 118.887619,195.062607 
	C118.887619,195.062607 118.966301,195.043228 118.905731,194.724457 
	C117.193787,193.615311 115.542412,192.824936 113.891029,192.034576 
	C98.672134,181.699066 83.482742,171.319748 68.223534,161.044098 
	C58.741730,154.659012 49.154167,148.430954 39.146721,141.799957 
	C38.422695,141.291351 38.148952,141.147736 37.858154,141.036636 
	C37.858154,141.036636 37.972401,141.030121 37.849670,140.845245 
	C37.440395,140.449188 37.153847,140.238007 36.867294,140.026825 
	C36.867294,140.026825 36.963551,140.032684 36.914673,139.669113 
	C36.794437,136.393402 36.208473,133.381897 36.748093,130.587753 
	C38.374550,122.166008 40.503227,113.842209 42.249569,105.441452 
	C42.463863,104.410591 41.545963,103.144379 41.152740,101.987228 
	C42.042023,98.892662 42.931309,95.798096 44.339409,92.249573 
	C45.533260,88.165352 46.208294,84.535088 46.883331,80.904831 
	C46.915237,80.486084 46.947140,80.067345 47.403877,79.243179 
	C50.153278,69.414383 52.499577,59.996120 54.721874,50.548683 
	C54.809509,50.176140 53.714577,49.525429 53.170658,49.004326 
	C54.562984,42.795532 55.955307,36.586739 57.355175,30.344299 
	C62.383953,28.502272 64.775169,33.100838 68.739311,35.328041 
	C70.143280,36.183830 71.136223,36.555031 72.129166,36.926231 
	C72.129166,36.926231 72.035721,36.941498 72.155716,37.137955 
	C72.563881,37.545765 72.852058,37.757122 73.140228,37.968483 
	C73.140228,37.968483 73.044502,37.965252 73.094177,38.275597 
	C74.136772,39.035130 75.129692,39.484325 76.122604,39.933517 
	C76.122604,39.933517 76.021118,39.947449 76.190979,40.167217 
	C76.950172,40.567474 77.539520,40.747959 78.128860,40.928444 
	C78.128860,40.928444 78.033646,40.944794 78.158981,41.142990 
	C78.582939,41.549080 78.881569,41.756969 79.180199,41.964859 
	C79.180199,41.964859 79.590927,41.974346 79.926208,42.250183 
	C80.523232,42.737724 80.818970,42.877563 81.148689,42.945538 
	C81.148689,42.945538 81.035851,42.956055 81.154678,43.145012 
	C81.562523,43.544308 81.851540,43.754639 82.140564,43.964973 
	C82.140564,43.964973 82.023460,43.969345 82.154236,44.152027 
	C82.575356,44.546608 82.865715,44.758507 83.156067,44.970409 
	C83.156067,44.970409 83.580444,44.983288 83.928787,45.258461 
	C84.576286,45.677849 84.875450,45.822063 85.174614,45.966278 
	C85.514397,45.955765 85.770386,46.097061 86.025940,46.957287 
	C87.022636,48.024727 87.935989,48.525043 88.849342,49.025360 
	C90.835480,50.342461 92.981567,51.473202 94.776192,53.013451 
	C99.223099,56.830051 101.508652,54.599342 103.776367,50.001862 
	C104.549217,49.433292 104.758186,49.142406 104.967155,48.851517 
	C104.967155,48.851517 104.963142,48.953896 105.271790,48.904324 
	C106.030670,47.860416 106.480896,46.866085 106.931122,45.871750 
	C106.931122,45.871750 106.940132,45.950577 107.261116,45.904892 
	C108.031776,44.863022 108.481453,43.866844 108.931129,42.870663 
	C108.931129,42.870663 108.941383,42.949284 109.261169,42.903576 
	C110.031219,41.862682 110.481483,40.867496 110.931740,39.872311 
	C110.931740,39.872311 110.939842,39.951107 111.260544,39.903271 
	C112.030495,38.860352 112.479752,37.865273 112.929016,36.870193 
	C112.929016,36.870193 112.939354,36.949593 113.229111,36.921913 
	C114.017624,36.266098 114.516380,35.637959 115.267731,34.768993 
	C115.671822,33.622284 115.823303,32.716396 115.974785,31.810511 
	C115.974785,31.810511 115.969490,31.417892 116.264908,31.087784 
	C116.698357,30.433910 116.836372,30.110146 116.974396,29.786379 
z"/>
<path fill="#FAC9BC" opacity="1.000000" stroke="none" 
	d="
M187.994736,159.863098 
	C187.994736,159.863098 187.595551,160.021652 187.139435,160.154572 
	C186.468536,160.575272 186.253738,160.863052 186.038940,161.150818 
	C186.038956,161.150833 186.038498,161.044586 185.859467,161.128967 
	C185.361908,161.342087 185.130447,161.562332 184.986038,161.874054 
	C184.986038,161.874054 184.591629,162.025208 184.010803,162.023438 
	C182.641296,162.724472 181.852600,163.427261 181.063889,164.130051 
	C181.063889,164.130051 181.043442,164.051636 180.717972,164.044540 
	C179.615631,164.733917 178.838760,165.430405 178.061890,166.126877 
	C178.061890,166.126877 178.041016,166.048920 177.705322,166.043274 
	C176.269363,167.069351 175.169113,168.101089 174.068848,169.132843 
	C174.068848,169.132828 174.045731,169.053436 173.719879,169.043213 
	C172.617264,169.731735 171.840515,170.430466 171.063766,171.129211 
	C171.063766,171.129211 171.049408,171.037674 170.854828,171.158630 
	C170.454330,171.568085 170.248413,171.856567 170.042511,172.145050 
	C170.042511,172.145050 170.040039,172.041672 169.864929,172.129929 
	C169.378845,172.347214 169.147278,172.561890 168.995117,172.862213 
	C168.995117,172.862213 168.598694,173.021500 168.140961,173.151978 
	C167.468597,173.571899 167.253983,173.861343 167.039368,174.150787 
	C167.039368,174.150787 167.036255,174.034851 166.849045,174.155762 
	C166.456680,174.567810 166.251526,174.858963 166.046371,175.150101 
	C166.046371,175.150101 166.043274,175.046310 165.865158,175.132309 
	C165.371429,175.346497 165.138474,175.563446 164.988190,175.869141 
	C164.988190,175.869141 164.598969,176.026459 164.143158,176.153717 
	C163.470032,176.568924 163.252701,176.856873 163.035385,177.144821 
	C155.282608,182.353271 147.529831,187.561722 139.219666,193.026138 
	C138.455597,193.570633 138.248917,193.859161 138.042221,194.147690 
	C138.042221,194.147690 138.041489,194.044510 137.862823,194.129196 
	C137.368622,194.341843 137.137756,194.559586 136.991547,194.867096 
	C136.991547,194.867096 136.592712,195.019958 136.136536,195.151367 
	C135.466385,195.570984 135.252396,195.859192 135.038406,196.147400 
	C135.038406,196.147400 135.034119,196.032715 134.850266,196.157349 
	C134.459045,196.569931 134.251694,196.857849 134.044327,197.145782 
	C134.044327,197.145782 134.045471,197.063568 133.689270,197.037521 
	C132.537918,196.994507 131.742798,196.977539 130.998550,196.609375 
	C136.405106,188.111801 141.597427,179.852203 147.148788,171.841431 
	C160.753799,152.209045 174.579971,132.729630 188.123734,113.055542 
	C189.214249,111.471428 189.841202,108.208717 188.957855,106.838837 
	C181.406677,95.128532 173.380417,83.726112 165.660812,72.122147 
	C162.201279,66.921852 159.117081,61.471874 156.113770,55.923527 
	C156.557755,55.100700 156.750549,54.489552 156.943329,53.878403 
	C156.943329,53.878399 156.958328,53.971485 157.150208,53.845337 
	C157.551086,53.429844 157.760071,53.140503 157.969055,52.851166 
	C157.969055,52.851166 157.965576,52.945183 158.294800,52.963581 
	C160.725784,51.274712 162.827560,49.567444 164.929321,47.860180 
	C164.929321,47.860180 164.946899,47.940033 165.283173,47.958366 
	C170.291077,45.382195 176.162338,44.303013 178.022705,38.157448 
	C178.022705,38.157448 178.413773,37.993153 179.006744,37.997200 
	C181.812637,36.946396 184.056396,35.950951 186.231018,34.822292 
	C189.240692,33.260254 192.198318,31.597963 195.178238,29.978600 
	C195.445633,30.150768 195.713043,30.322939 195.698425,30.925224 
	C195.275909,31.903481 195.135391,32.451622 195.001450,33.379318 
	C195.724182,34.815422 196.440353,35.871975 197.156525,36.928528 
	C197.156525,36.928528 197.075775,36.948376 196.990082,37.252426 
	C197.237213,39.719357 197.570053,41.882240 197.925140,44.366425 
	C198.245956,45.458515 198.544510,46.229298 198.843063,47.000080 
	C198.843063,47.000080 199.009415,47.401108 198.998962,47.962891 
	C199.278748,49.354225 199.568970,50.183773 199.859192,51.013321 
	C200.246140,51.785973 200.633087,52.558628 200.798859,53.763802 
	C200.668274,54.468906 200.758865,54.741497 200.849457,55.014084 
	C200.849442,55.014088 201.014832,55.409969 201.002701,56.078445 
	C202.329147,63.496830 203.667725,70.246735 205.003754,77.407425 
	C207.081848,86.967697 209.049210,96.145210 211.302658,105.251938 
	C212.127441,108.585098 213.630859,111.750351 214.824707,114.992195 
	C216.240509,120.764069 217.129135,126.738976 219.247772,132.240173 
	C220.795364,136.258636 219.722412,138.710342 216.751282,140.653961 
	C208.842255,145.827728 200.773651,150.757523 192.109055,155.957047 
	C190.989014,156.797409 190.528442,157.465073 190.067856,158.132721 
	C190.067856,158.132721 190.053314,158.040405 189.857330,158.159698 
	C189.455475,158.568344 189.249588,158.857697 189.043716,159.147064 
	C189.043716,159.147064 189.041168,159.042892 188.865555,159.130188 
	C188.377960,159.346268 188.146225,159.561478 187.994736,159.863098 
z"/>
<path fill="#FCEAE4" opacity="1.000000" stroke="none" 
	d="
M41.079834,102.408134 
	C41.545963,103.144379 42.463863,104.410591 42.249569,105.441452 
	C40.503227,113.842209 38.374550,122.166008 36.748093,130.587753 
	C36.208473,133.381897 36.794437,136.393402 36.906921,139.716705 
	C32.316582,139.213852 33.873787,135.808075 34.411427,133.184036 
	C36.489620,123.041054 38.789585,112.943512 41.079834,102.408134 
z"/>
<path fill="#F8DFD8" opacity="1.000000" stroke="none" 
	d="
M214.895233,114.582184 
	C213.630859,111.750351 212.127441,108.585098 211.302658,105.251938 
	C209.049210,96.145210 207.081848,86.967697 205.280334,77.398087 
	C205.743927,76.971855 205.928375,76.965767 206.112823,76.959671 
	C208.747116,87.798958 211.388535,98.636520 214.007660,109.479469 
	C214.382278,111.030357 214.649078,112.607300 214.895233,114.582184 
z"/>
<path fill="#F8DED7" opacity="1.000000" stroke="none" 
	d="
M53.099319,49.423229 
	C53.714577,49.525429 54.809509,50.176140 54.721874,50.548683 
	C52.499577,59.996120 50.153278,69.414383 47.478134,78.936775 
	C48.787300,70.879280 50.449043,62.723171 52.105049,54.565899 
	C52.424229,52.993652 52.720917,51.416840 53.099319,49.423229 
z"/>
<path fill="#F9E7E1" opacity="1.000000" stroke="none" 
	d="
M195.094482,29.594017 
	C192.198318,31.597963 189.240692,33.260254 186.231018,34.822292 
	C184.056396,35.950951 181.812637,36.946396 179.218628,37.988472 
	C183.008774,34.730335 187.106552,31.380236 191.428543,28.349928 
	C192.094406,27.883076 193.790894,28.886158 195.094482,29.594017 
z"/>
<path fill="#FBE5E0" opacity="1.000000" stroke="none" 
	d="
M206.060760,76.537918 
	C205.928375,76.965767 205.743927,76.971855 205.282898,76.987297 
	C203.667725,70.246735 202.329147,63.496830 201.008270,56.292892 
	C202.686874,62.597958 204.347778,69.357056 206.060760,76.537918 
z"/>
<path fill="#FCECE6" opacity="1.000000" stroke="none" 
	d="
M131.074860,19.595709 
	C128.238617,18.183567 126.032471,18.251522 124.375687,21.794790 
	C123.620056,23.410835 121.867691,24.560825 120.210098,25.929111 
	C122.133232,22.278622 124.413689,18.621220 127.099426,14.313830 
	C128.737106,16.382137 129.872208,17.815710 131.074860,19.595709 
z"/>
<path fill="#F9E2D9" opacity="1.000000" stroke="none" 
	d="
M177.674713,38.172455 
	C176.162338,44.303013 170.291077,45.382195 165.243042,47.950542 
	C169.020020,44.678745 173.173386,41.433105 177.674713,38.172455 
z"/>
<path fill="#F8DED7" opacity="1.000000" stroke="none" 
	d="
M46.532021,81.100151 
	C46.208294,84.535088 45.533260,88.165352 44.515221,91.894691 
	C44.841713,88.427673 45.511215,84.861572 46.532021,81.100151 
z"/>
<path fill="#F9E2D9" opacity="1.000000" stroke="none" 
	d="
M164.578003,47.920952 
	C162.827560,49.567444 160.725784,51.274712 158.248459,52.955498 
	C159.990829,51.279915 162.108765,49.630817 164.578003,47.920952 
z"/>
<path fill="#F9E7E1" opacity="1.000000" stroke="none" 
	d="
M197.902893,44.045120 
	C197.570053,41.882240 197.237213,39.719357 196.997406,37.211502 
	C197.726135,38.985184 198.361816,41.103836 198.686432,43.618561 
	C198.375381,44.014633 197.902908,44.045120 197.902893,44.045120 
z"/>
<path fill="#FEE0D3" opacity="1.000000" stroke="none" 
	d="
M131.091492,199.081940 
	C128.790863,199.308594 126.490234,199.535233 124.077682,199.397842 
	C123.965752,199.033813 124.020180,198.971588 124.450211,198.894989 
	C126.911499,198.870636 128.942764,198.922882 131.003296,199.001923 
	C131.032562,199.028732 131.091492,199.081955 131.091492,199.081940 
z"/>
<path fill="#FEE0D3" opacity="1.000000" stroke="none" 
	d="
M114.030258,192.353729 
	C115.542412,192.824936 117.193787,193.615311 118.893066,194.762939 
	C117.350471,194.304443 115.759987,193.488663 114.030258,192.353729 
z"/>
<path fill="#FEE0D3" opacity="1.000000" stroke="none" 
	d="
M119.013824,195.372574 
	C119.968239,195.053085 121.048851,195.043564 122.588676,195.399963 
	C123.041290,196.503922 123.034698,197.241928 122.998672,198.006180 
	C122.969231,198.032410 122.916687,198.091217 122.916687,198.091217 
	C121.657799,197.288330 120.398911,196.485443 119.013824,195.372574 
z"/>
<path fill="#F9E7E1" opacity="1.000000" stroke="none" 
	d="
M197.088348,36.562950 
	C196.440353,35.871975 195.724182,34.815422 195.288269,33.367043 
	C195.759567,32.964630 195.950607,32.954041 196.141663,32.943455 
	C196.434494,34.028091 196.727325,35.112732 197.088348,36.562950 
z"/>
<path fill="#FDDFD4" opacity="1.000000" stroke="none" 
	d="
M174.401169,169.072723 
	C175.169113,168.101089 176.269363,167.069351 177.744766,166.051727 
	C176.991104,167.048080 175.862289,168.030350 174.401169,169.072723 
z"/>
<path fill="#F9E2D9" opacity="1.000000" stroke="none" 
	d="
M156.553772,53.930084 
	C156.750549,54.489552 156.557755,55.100700 155.803848,55.905670 
	C154.825760,56.092865 154.408813,56.086250 153.991852,56.079636 
	C153.736038,55.533745 153.480225,54.987854 153.126801,54.156311 
	C154.074219,53.907692 155.119217,53.944725 156.553772,53.930084 
z"/>
<path fill="#F7DFD7" opacity="1.000000" stroke="none" 
	d="
M88.856903,48.688538 
	C87.935989,48.525043 87.022636,48.024727 86.070114,47.181709 
	C86.975456,47.343250 87.919952,47.847485 88.856903,48.688538 
z"/>
<path fill="#FAE2DB" opacity="1.000000" stroke="none" 
	d="
M112.620346,36.997490 
	C112.479752,37.865273 112.030495,38.860352 111.221443,39.896935 
	C111.344994,39.000553 111.828339,38.062672 112.620346,36.997490 
z"/>
<path fill="#FCECE6" opacity="1.000000" stroke="none" 
	d="
M119.622925,25.998934 
	C119.466789,26.869957 119.003769,27.879049 118.174820,28.930553 
	C118.311279,28.027643 118.813660,27.082325 119.622925,25.998934 
z"/>
<path fill="#FCECE6" opacity="1.000000" stroke="none" 
	d="
M115.668022,31.958897 
	C115.823303,32.716396 115.671822,33.622284 114.985840,34.754986 
	C114.263420,34.975342 114.075478,34.968876 113.887543,34.962406 
	C114.378777,34.010696 114.870018,33.058987 115.668022,31.958897 
z"/>
<path fill="#F7DFD7" opacity="1.000000" stroke="none" 
	d="
M71.996445,36.614014 
	C71.136223,36.555031 70.143280,36.183830 69.063156,35.480618 
	C69.938568,35.533001 70.901146,35.917397 71.996445,36.614014 
z"/>
<path fill="#FAE2DB" opacity="1.000000" stroke="none" 
	d="
M106.625015,45.999191 
	C106.480896,46.866085 106.030670,47.860416 105.221176,48.896484 
	C105.347565,48.001022 105.833229,47.063828 106.625015,45.999191 
z"/>
<path fill="#FDDFD4" opacity="1.000000" stroke="none" 
	d="
M171.389404,171.069580 
	C171.840515,170.430466 172.617264,169.731735 173.760162,169.052536 
	C173.322556,169.718033 172.518799,170.363998 171.389404,171.069580 
z"/>
<path fill="#FDDFD4" opacity="1.000000" stroke="none" 
	d="
M178.388824,166.068756 
	C178.838760,165.430405 179.615631,164.733917 180.757629,164.052872 
	C180.320419,164.715744 179.518097,165.363190 178.388824,166.068756 
z"/>
<path fill="#F7DFD7" opacity="1.000000" stroke="none" 
	d="
M75.994507,39.627594 
	C75.129692,39.484325 74.136772,39.035130 73.101364,38.228245 
	C73.994713,38.354259 74.930565,38.837963 75.994507,39.627594 
z"/>
<path fill="#FAE2DB" opacity="1.000000" stroke="none" 
	d="
M110.624939,39.998901 
	C110.481483,40.867496 110.031219,41.862682 109.221893,42.898178 
	C109.347939,42.000824 109.833038,41.063160 110.624939,39.998901 
z"/>
<path fill="#FDDFD4" opacity="1.000000" stroke="none" 
	d="
M181.394165,164.071426 
	C181.852600,163.427261 182.641296,162.724472 183.799744,162.031036 
	C183.354492,162.697861 182.539474,163.355331 181.394165,164.071426 
z"/>
<path fill="#FAE2DB" opacity="1.000000" stroke="none" 
	d="
M108.626053,43.001484 
	C108.481453,43.866844 108.031776,44.863022 107.221954,45.898556 
	C107.348206,45.002708 107.834595,44.067509 108.626053,43.001484 
z"/>
<path fill="#FEE0D3" opacity="1.000000" stroke="none" 
	d="
M130.947662,196.960571 
	C131.742798,196.977539 132.537918,196.994507 133.729523,197.045807 
	C133.314926,197.671494 132.503845,198.262833 131.392136,198.968063 
	C131.091492,199.081955 131.032562,199.028732 130.940216,198.669525 
	C130.881134,197.860397 130.914398,197.410477 130.947662,196.960571 
z"/>
<path fill="#FAE2DB" opacity="1.000000" stroke="none" 
	d="
M113.597382,35.065750 
	C114.075478,34.968876 114.263420,34.975342 114.733246,34.995811 
	C114.516380,35.637959 114.017624,36.266098 113.189827,36.914207 
	C113.009598,36.345814 113.158409,35.757454 113.597382,35.065750 
z"/>
<path fill="#FDDFD4" opacity="1.000000" stroke="none" 
	d="
M190.416138,158.071991 
	C190.528442,157.465073 190.989014,156.797409 191.781998,156.084167 
	C191.664398,156.696136 191.214401,157.353699 190.416138,158.071991 
z"/>
<path fill="#FAE7E0" opacity="1.000000" stroke="none" 
	d="
M199.923172,50.652206 
	C199.568970,50.183773 199.278748,49.354225 199.007568,48.179802 
	C199.346786,48.653652 199.666977,49.472370 199.923172,50.652206 
z"/>
<path fill="#FAE7E0" opacity="1.000000" stroke="none" 
	d="
M197.925156,44.366425 
	C197.902908,44.045120 198.375381,44.014633 198.612000,44.007504 
	C198.892349,44.751823 198.936096,45.503277 198.911453,46.627403 
	C198.544510,46.229298 198.245956,45.458515 197.925156,44.366425 
z"/>
<path fill="#F7DFD7" opacity="1.000000" stroke="none" 
	d="
M77.999161,40.631287 
	C77.539520,40.747959 76.950172,40.567474 76.189323,40.116028 
	C76.635033,40.008087 77.252251,40.171112 77.999161,40.631287 
z"/>
<path fill="#FAE7E0" opacity="1.000000" stroke="none" 
	d="
M196.080414,32.618561 
	C195.950607,32.954041 195.759567,32.964630 195.281708,32.987488 
	C195.135391,32.451622 195.275909,31.903481 195.638794,31.169521 
	C195.913849,31.420355 195.966507,31.857012 196.080414,32.618561 
z"/>
<path fill="#FDDFD4" opacity="1.000000" stroke="none" 
	d="
M170.303543,172.049591 
	C170.248413,171.856567 170.454330,171.568085 170.901154,171.157578 
	C170.949554,171.341751 170.757065,171.647934 170.303543,172.049591 
z"/>
<path fill="#FDDFD4" opacity="1.000000" stroke="none" 
	d="
M169.267395,172.898834 
	C169.147278,172.561890 169.378845,172.347214 169.916443,172.134430 
	C169.941940,172.345596 169.740799,172.640533 169.267395,172.898834 
z"/>
<path fill="#FEE0D3" opacity="1.000000" stroke="none" 
	d="
M137.265656,194.907806 
	C137.137756,194.559586 137.368622,194.341843 137.914093,194.134857 
	C137.942612,194.353378 137.741196,194.650955 137.265656,194.907806 
z"/>
<path fill="#FDDFD4" opacity="1.000000" stroke="none" 
	d="
M167.302155,174.051727 
	C167.253983,173.861343 167.468597,173.571899 167.927460,173.159058 
	C167.969437,173.341324 167.767181,173.647003 167.302155,174.051727 
z"/>
<path fill="#FDDFD4" opacity="1.000000" stroke="none" 
	d="
M166.308411,175.055634 
	C166.251526,174.858963 166.456680,174.567810 166.906937,174.159180 
	C166.958176,174.348190 166.764313,174.654678 166.308411,175.055634 
z"/>
<path fill="#FDDFD4" opacity="1.000000" stroke="none" 
	d="
M165.262192,175.906357 
	C165.138474,175.563446 165.371429,175.346497 165.916870,175.137024 
	C165.943192,175.351700 165.739685,175.647629 165.262192,175.906357 
z"/>
<path fill="#FDDFD4" opacity="1.000000" stroke="none" 
	d="
M163.299805,177.049194 
	C163.252701,176.856873 163.470032,176.568924 163.933319,176.158966 
	C163.974258,176.342484 163.769241,176.648026 163.299805,177.049194 
z"/>
<path fill="#FEE0D3" opacity="1.000000" stroke="none" 
	d="
M138.303223,194.049545 
	C138.248917,193.859161 138.455597,193.570633 138.900269,193.155869 
	C138.946915,193.336899 138.755554,193.644150 138.303223,194.049545 
z"/>
<path fill="#FCECE6" opacity="1.000000" stroke="none" 
	d="
M132.931473,21.775963 
	C132.650208,21.823523 132.416336,21.582123 132.114288,21.090420 
	C132.357025,21.055748 132.667953,21.271376 132.931473,21.775963 
z"/>
<path fill="#FEE0D3" opacity="1.000000" stroke="none" 
	d="
M135.301392,196.050079 
	C135.252396,195.859192 135.466385,195.570984 135.923126,195.158997 
	C135.965378,195.341064 135.764877,195.646912 135.301392,196.050079 
z"/>
<path fill="#FEE0D3" opacity="1.000000" stroke="none" 
	d="
M134.304947,197.049683 
	C134.251694,196.857849 134.459045,196.569931 134.907593,196.159882 
	C134.954361,196.343048 134.759964,196.648331 134.304947,197.049683 
z"/>
<path fill="#FEE0D3" opacity="1.000000" stroke="none" 
	d="
M123.935432,199.061920 
	C123.622231,198.920090 123.339348,198.750153 122.986572,198.335724 
	C122.916687,198.091217 122.969231,198.032410 123.259018,198.054504 
	C123.705933,198.374924 123.863060,198.673248 124.020187,198.971588 
	C124.020180,198.971588 123.965752,199.033813 123.935432,199.061920 
z"/>
<path fill="#FCECE6" opacity="1.000000" stroke="none" 
	d="
M132.059235,20.711910 
	C131.862076,20.767654 131.564026,20.557127 131.143295,20.097023 
	C131.333191,20.046846 131.645782,20.246244 132.059235,20.711910 
z"/>
<path fill="#FBE5E0" opacity="1.000000" stroke="none" 
	d="
M200.908539,54.758186 
	C200.758865,54.741497 200.668274,54.468906 200.714523,54.093185 
	C200.890106,54.160793 200.928864,54.331539 200.908539,54.758186 
z"/>
<path fill="#F7DFD7" opacity="1.000000" stroke="none" 
	d="
M73.046326,37.705086 
	C72.852058,37.757122 72.563881,37.545765 72.154785,37.090622 
	C72.340050,37.045120 72.646240,37.243404 73.046326,37.705086 
z"/>
<path fill="#F7DFD7" opacity="1.000000" stroke="none" 
	d="
M79.070831,41.704441 
	C78.881569,41.756969 78.582939,41.549080 78.157135,41.094723 
	C78.340462,41.046844 78.650963,41.245430 79.070831,41.704441 
z"/>
<path fill="#F7DFD7" opacity="1.000000" stroke="none" 
	d="
M81.050629,42.680981 
	C80.818970,42.877563 80.523232,42.737724 80.117554,42.324879 
	C80.299942,42.221302 80.626251,42.318863 81.050629,42.680981 
z"/>
<path fill="#F7DFD7" opacity="1.000000" stroke="none" 
	d="
M82.050568,43.699261 
	C81.851540,43.754639 81.562523,43.544308 81.155022,43.088348 
	C81.344551,43.039665 81.652565,43.236607 82.050568,43.699261 
z"/>
<path fill="#F7DFD7" opacity="1.000000" stroke="none" 
	d="
M83.052620,44.709869 
	C82.865715,44.758507 82.575356,44.546608 82.155846,44.093456 
	C82.334183,44.051243 82.641678,44.250282 83.052620,44.709869 
z"/>
<path fill="#F7DFD7" opacity="1.000000" stroke="none" 
	d="
M85.069901,45.700661 
	C84.875450,45.822063 84.576286,45.677849 84.127914,45.332035 
	C84.307526,45.231972 84.636353,45.333508 85.069901,45.700661 
z"/>
<path fill="#FAE2DB" opacity="1.000000" stroke="none" 
	d="
M104.701782,48.946510 
	C104.758186,49.142406 104.549217,49.433292 104.098450,49.848572 
	C104.049904,49.662479 104.243156,49.351990 104.701782,48.946510 
z"/>
<path fill="#F9E2D9" opacity="1.000000" stroke="none" 
	d="
M157.707626,52.951408 
	C157.760071,53.140503 157.551086,53.429844 157.103149,53.847870 
	C157.058197,53.668255 157.252197,53.359955 157.707626,52.951408 
z"/>
<path fill="#FDDFD4" opacity="1.000000" stroke="none" 
	d="
M185.262268,161.914627 
	C185.130447,161.562332 185.361908,161.342087 185.912292,161.134583 
	C185.942261,161.355606 185.740372,161.655411 185.262268,161.914627 
z"/>
<path fill="#FCECE6" opacity="1.000000" stroke="none" 
	d="
M116.703339,29.906628 
	C116.836372,30.110146 116.698357,30.433910 116.339615,30.906227 
	C116.223366,30.712143 116.327827,30.369509 116.703339,29.906628 
z"/>
<path fill="#FCECE6" opacity="1.000000" stroke="none" 
	d="
M134.923264,24.762032 
	C134.646118,24.802094 134.412582,24.546953 134.100464,24.036678 
	C134.336868,24.009972 134.651871,24.238401 134.923264,24.762032 
z"/>
<path fill="#FCEAE4" opacity="1.000000" stroke="none" 
	d="
M36.958916,140.290985 
	C37.153847,140.238007 37.440395,140.449188 37.848873,140.902466 
	C37.664047,140.948090 37.357292,140.751617 36.958916,140.290985 
z"/>
<path fill="#FCEAE4" opacity="1.000000" stroke="none" 
	d="
M37.956329,141.283173 
	C38.148952,141.147736 38.422695,141.291351 38.819477,141.651764 
	C38.657887,141.733948 38.356197,141.631821 37.956329,141.283173 
z"/>
<path fill="#FDDFD4" opacity="1.000000" stroke="none" 
	d="
M189.304657,159.051468 
	C189.249588,158.857697 189.455475,158.568344 189.904053,158.159027 
	C189.953033,158.344681 189.759308,158.650284 189.304657,159.051468 
z"/>
<path fill="#FDDFD4" opacity="1.000000" stroke="none" 
	d="
M188.267197,159.900055 
	C188.146225,159.561478 188.377960,159.346268 188.917450,159.134811 
	C188.943192,159.347107 188.741425,159.642044 188.267197,159.900055 
z"/>
<path fill="#FDDFD4" opacity="1.000000" stroke="none" 
	d="
M186.299805,161.049576 
	C186.253738,160.863052 186.468536,160.575272 186.924774,160.161301 
	C186.964386,160.339523 186.762527,160.643936 186.299805,161.049576 
z"/>
<path fill="#F6A58B" opacity="1.000000" stroke="none" 
	d="
M124.450211,198.894989 
	C123.863060,198.673248 123.705933,198.374924 123.288460,198.028259 
	C123.034698,197.241928 123.041290,196.503922 122.993996,195.399109 
	C119.564034,189.579330 116.376129,183.998611 112.777130,178.696930 
	C101.256622,161.726028 89.584427,144.858109 77.969383,127.951393 
	C74.777206,123.304893 71.803246,118.485275 68.313820,114.073608 
	C65.588730,110.628288 65.128334,107.848846 67.875389,104.085609 
	C74.619583,94.846611 81.048065,85.374268 87.485870,75.915695 
	C90.739761,71.135002 93.800949,66.219032 96.830444,61.291172 
	C98.879601,57.957962 100.886864,57.072128 104.441826,59.734699 
	C110.404327,64.200447 116.796097,68.088554 122.918633,72.347130 
	C125.775993,74.334579 128.335007,74.299728 131.149368,72.295242 
	C138.583328,67.000534 146.092224,61.811077 153.781586,56.329678 
	C154.408813,56.086250 154.825760,56.092865 155.552643,56.117340 
	C159.117081,61.471874 162.201279,66.921852 165.660812,72.122147 
	C173.380417,83.726112 181.406677,95.128532 188.957855,106.838837 
	C189.841202,108.208717 189.214249,111.471428 188.123734,113.055542 
	C174.579971,132.729630 160.753799,152.209045 147.148788,171.841431 
	C141.597427,179.852203 136.405106,188.111801 130.998550,196.609375 
	C130.914398,197.410477 130.881134,197.860397 130.910950,198.642715 
	C128.942764,198.922882 126.911499,198.870636 124.450211,198.894989 
M105.482559,106.942932 
	C112.501862,135.597427 119.521156,164.251923 126.540451,192.906418 
	C127.051094,192.921753 127.561737,192.937088 128.072388,192.952423 
	C129.016754,189.760849 130.147339,186.611038 130.874069,183.370651 
	C134.498886,167.208282 137.931763,151.002609 141.600800,134.850479 
	C144.536942,121.924751 147.837494,109.080582 150.651367,96.129608 
	C151.067657,94.213547 150.393372,90.972870 149.022827,89.942932 
	C142.805099,85.270401 136.205521,81.093590 129.615646,76.941048 
	C128.529510,76.256622 126.374092,75.929901 125.447052,76.544800 
	C118.272278,81.303772 111.215584,86.250633 104.298187,91.376640 
	C103.309883,92.109009 102.708961,94.193748 102.892952,95.518692 
	C103.390747,99.103325 104.407959,102.615829 105.482559,106.942932 
z"/>
<path fill="#F48D6A" opacity="1.000000" stroke="none" 
	d="
M105.350845,106.549942 
	C104.407959,102.615829 103.390747,99.103325 102.892952,95.518692 
	C102.708961,94.193748 103.309883,92.109009 104.298187,91.376640 
	C111.215584,86.250633 118.272278,81.303772 125.447052,76.544800 
	C126.374092,75.929901 128.529510,76.256622 129.615646,76.941048 
	C136.205521,81.093590 142.805099,85.270401 149.022827,89.942932 
	C150.393372,90.972870 151.067657,94.213547 150.651367,96.129608 
	C147.837494,109.080582 144.536942,121.924751 141.600800,134.850479 
	C137.931763,151.002609 134.498886,167.208282 130.874069,183.370651 
	C130.147339,186.611038 129.016754,189.760849 128.072388,192.952423 
	C127.561737,192.937088 127.051094,192.921753 126.540451,192.906418 
	C119.521156,164.251923 112.501862,135.597427 105.350845,106.549942 
z"/>
</svg>